<mxfile host="app.diagrams.net" agent="Mozilla/5.0 (Windows NT 10.0; Win64; x64) AppleWebKit/537.36 (KHTML, like Gecko) Chrome/136.0.0.0 Safari/537.36" version="27.0.6">
  <diagram name="Sayfa -1" id="0jJvFyLG2YzIqBmxauGC">
    <mxGraphModel dx="1912" dy="1069" grid="0" gridSize="10" guides="1" tooltips="1" connect="1" arrows="1" fold="1" page="0" pageScale="1" pageWidth="827" pageHeight="1169" math="0" shadow="0">
      <root>
        <mxCell id="0" />
        <mxCell id="1" parent="0" />
        <mxCell id="j4_hcc7tg6HEmNdBThnG-3" style="edgeStyle=none;curved=1;rounded=0;orthogonalLoop=1;jettySize=auto;html=1;exitX=0.5;exitY=1;exitDx=0;exitDy=0;fontFamily=Architects Daughter;fontSource=https%3A%2F%2Ffonts.googleapis.com%2Fcss%3Ffamily%3DArchitects%2BDaughter;fontSize=16;startSize=14;endArrow=open;endSize=14;sourcePerimeterSpacing=8;targetPerimeterSpacing=8;" edge="1" parent="1" source="j4_hcc7tg6HEmNdBThnG-1" target="j4_hcc7tg6HEmNdBThnG-2">
          <mxGeometry relative="1" as="geometry" />
        </mxCell>
        <mxCell id="j4_hcc7tg6HEmNdBThnG-1" value="müşteri sisteme giriş yapar." style="rounded=1;whiteSpace=wrap;html=1;fontFamily=Architects Daughter;fontSource=https%3A%2F%2Ffonts.googleapis.com%2Fcss%3Ffamily%3DArchitects%2BDaughter;" vertex="1" parent="1">
          <mxGeometry x="215" y="-12" width="120" height="60" as="geometry" />
        </mxCell>
        <mxCell id="j4_hcc7tg6HEmNdBThnG-5" style="edgeStyle=none;curved=1;rounded=0;orthogonalLoop=1;jettySize=auto;html=1;exitX=0.5;exitY=1;exitDx=0;exitDy=0;fontFamily=Architects Daughter;fontSource=https%3A%2F%2Ffonts.googleapis.com%2Fcss%3Ffamily%3DArchitects%2BDaughter;fontSize=16;startSize=14;endArrow=open;endSize=14;sourcePerimeterSpacing=8;targetPerimeterSpacing=8;" edge="1" parent="1" source="j4_hcc7tg6HEmNdBThnG-2" target="j4_hcc7tg6HEmNdBThnG-6">
          <mxGeometry relative="1" as="geometry">
            <mxPoint x="275" y="234.80001831054688" as="targetPoint" />
          </mxGeometry>
        </mxCell>
        <mxCell id="j4_hcc7tg6HEmNdBThnG-7" style="edgeStyle=none;curved=1;rounded=0;orthogonalLoop=1;jettySize=auto;html=1;exitX=1;exitY=0.5;exitDx=0;exitDy=0;entryX=0;entryY=0.5;entryDx=0;entryDy=0;fontFamily=Architects Daughter;fontSource=https%3A%2F%2Ffonts.googleapis.com%2Fcss%3Ffamily%3DArchitects%2BDaughter;fontSize=16;startSize=14;endArrow=open;endSize=14;sourcePerimeterSpacing=8;targetPerimeterSpacing=8;" edge="1" parent="1" source="j4_hcc7tg6HEmNdBThnG-2" target="j4_hcc7tg6HEmNdBThnG-4">
          <mxGeometry relative="1" as="geometry" />
        </mxCell>
        <mxCell id="j4_hcc7tg6HEmNdBThnG-2" value="" style="rhombus;whiteSpace=wrap;html=1;shadow=0;fontFamily=Helvetica;fontSize=12;align=center;strokeWidth=1;spacing=6;spacingTop=-4;" vertex="1" parent="1">
          <mxGeometry x="225" y="108" width="100" height="80" as="geometry" />
        </mxCell>
        <mxCell id="j4_hcc7tg6HEmNdBThnG-23" style="edgeStyle=none;curved=1;rounded=0;orthogonalLoop=1;jettySize=auto;html=1;exitX=0.5;exitY=1;exitDx=0;exitDy=0;fontFamily=Architects Daughter;fontSource=https%3A%2F%2Ffonts.googleapis.com%2Fcss%3Ffamily%3DArchitects%2BDaughter;fontSize=16;startSize=14;endArrow=open;endSize=14;sourcePerimeterSpacing=8;targetPerimeterSpacing=8;" edge="1" parent="1" source="j4_hcc7tg6HEmNdBThnG-4" target="j4_hcc7tg6HEmNdBThnG-24">
          <mxGeometry relative="1" as="geometry">
            <mxPoint x="488" y="223.59996032714844" as="targetPoint" />
          </mxGeometry>
        </mxCell>
        <mxCell id="j4_hcc7tg6HEmNdBThnG-4" value="müşteri kayıt olur." style="rounded=1;whiteSpace=wrap;html=1;fontFamily=Architects Daughter;fontSource=https%3A%2F%2Ffonts.googleapis.com%2Fcss%3Ffamily%3DArchitects%2BDaughter;" vertex="1" parent="1">
          <mxGeometry x="428" y="118" width="120" height="60" as="geometry" />
        </mxCell>
        <mxCell id="j4_hcc7tg6HEmNdBThnG-17" style="edgeStyle=none;curved=1;rounded=0;orthogonalLoop=1;jettySize=auto;html=1;exitX=0.5;exitY=1;exitDx=0;exitDy=0;entryX=0.5;entryY=0;entryDx=0;entryDy=0;fontFamily=Architects Daughter;fontSource=https%3A%2F%2Ffonts.googleapis.com%2Fcss%3Ffamily%3DArchitects%2BDaughter;fontSize=16;startSize=14;endArrow=open;endSize=14;sourcePerimeterSpacing=8;targetPerimeterSpacing=8;" edge="1" parent="1" source="j4_hcc7tg6HEmNdBThnG-6">
          <mxGeometry relative="1" as="geometry">
            <mxPoint x="275" y="373" as="targetPoint" />
          </mxGeometry>
        </mxCell>
        <mxCell id="j4_hcc7tg6HEmNdBThnG-6" value="yapılan fiyat teklifleri arasından istenilen araç için seçim yapar" style="rounded=1;whiteSpace=wrap;html=1;fontFamily=Architects Daughter;fontSource=https%3A%2F%2Ffonts.googleapis.com%2Fcss%3Ffamily%3DArchitects%2BDaughter;" vertex="1" parent="1">
          <mxGeometry x="215" y="252.00001831054686" width="120" height="60" as="geometry" />
        </mxCell>
        <mxCell id="j4_hcc7tg6HEmNdBThnG-8" value="[müşteri sisteme kayıtlıysa]" style="text;strokeColor=none;fillColor=none;html=1;align=center;verticalAlign=middle;whiteSpace=wrap;rounded=0;fontSize=20;fontFamily=Architects Daughter;fontSource=https%3A%2F%2Ffonts.googleapis.com%2Fcss%3Ffamily%3DArchitects%2BDaughter;" vertex="1" parent="1">
          <mxGeometry x="-2" y="201" width="274" height="2" as="geometry" />
        </mxCell>
        <mxCell id="j4_hcc7tg6HEmNdBThnG-9" value="[else]" style="text;strokeColor=none;fillColor=none;html=1;align=center;verticalAlign=middle;whiteSpace=wrap;rounded=0;fontSize=20;fontFamily=Architects Daughter;fontSource=https%3A%2F%2Ffonts.googleapis.com%2Fcss%3Ffamily%3DArchitects%2BDaughter;" vertex="1" parent="1">
          <mxGeometry x="335" y="112" width="60" height="30" as="geometry" />
        </mxCell>
        <mxCell id="j4_hcc7tg6HEmNdBThnG-13" style="edgeStyle=none;curved=1;rounded=0;orthogonalLoop=1;jettySize=auto;html=1;exitX=0.5;exitY=1;exitDx=0;exitDy=0;entryX=0.5;entryY=0;entryDx=0;entryDy=0;fontFamily=Architects Daughter;fontSource=https%3A%2F%2Ffonts.googleapis.com%2Fcss%3Ffamily%3DArchitects%2BDaughter;fontSize=16;startSize=14;endArrow=open;endSize=14;sourcePerimeterSpacing=8;targetPerimeterSpacing=8;" edge="1" parent="1" source="j4_hcc7tg6HEmNdBThnG-11" target="j4_hcc7tg6HEmNdBThnG-12">
          <mxGeometry relative="1" as="geometry" />
        </mxCell>
        <mxCell id="j4_hcc7tg6HEmNdBThnG-11" value="bayi stok durumunu kontrol eder." style="rounded=1;whiteSpace=wrap;html=1;fontFamily=Architects Daughter;fontSource=https%3A%2F%2Ffonts.googleapis.com%2Fcss%3Ffamily%3DArchitects%2BDaughter;" vertex="1" parent="1">
          <mxGeometry x="215" y="496" width="120" height="60" as="geometry" />
        </mxCell>
        <mxCell id="j4_hcc7tg6HEmNdBThnG-15" style="edgeStyle=none;curved=1;rounded=0;orthogonalLoop=1;jettySize=auto;html=1;exitX=1;exitY=0.5;exitDx=0;exitDy=0;entryX=0;entryY=0.5;entryDx=0;entryDy=0;fontFamily=Architects Daughter;fontSource=https%3A%2F%2Ffonts.googleapis.com%2Fcss%3Ffamily%3DArchitects%2BDaughter;fontSize=16;startSize=14;endArrow=open;endSize=14;sourcePerimeterSpacing=8;targetPerimeterSpacing=8;" edge="1" parent="1" source="j4_hcc7tg6HEmNdBThnG-12" target="j4_hcc7tg6HEmNdBThnG-14">
          <mxGeometry relative="1" as="geometry" />
        </mxCell>
        <mxCell id="j4_hcc7tg6HEmNdBThnG-27" style="edgeStyle=none;curved=1;rounded=0;orthogonalLoop=1;jettySize=auto;html=1;exitX=0.5;exitY=1;exitDx=0;exitDy=0;fontFamily=Architects Daughter;fontSource=https%3A%2F%2Ffonts.googleapis.com%2Fcss%3Ffamily%3DArchitects%2BDaughter;fontSize=16;startSize=14;endArrow=open;endSize=14;sourcePerimeterSpacing=8;targetPerimeterSpacing=8;" edge="1" parent="1" source="j4_hcc7tg6HEmNdBThnG-12" target="j4_hcc7tg6HEmNdBThnG-26">
          <mxGeometry relative="1" as="geometry" />
        </mxCell>
        <mxCell id="j4_hcc7tg6HEmNdBThnG-12" value="" style="rhombus;whiteSpace=wrap;html=1;shadow=0;fontFamily=Helvetica;fontSize=12;align=center;strokeWidth=1;spacing=6;spacingTop=-4;" vertex="1" parent="1">
          <mxGeometry x="225" y="600" width="100" height="80" as="geometry" />
        </mxCell>
        <mxCell id="j4_hcc7tg6HEmNdBThnG-31" style="edgeStyle=none;curved=1;rounded=0;orthogonalLoop=1;jettySize=auto;html=1;exitX=0.5;exitY=1;exitDx=0;exitDy=0;fontFamily=Architects Daughter;fontSource=https%3A%2F%2Ffonts.googleapis.com%2Fcss%3Ffamily%3DArchitects%2BDaughter;fontSize=16;startSize=14;endArrow=open;endSize=14;sourcePerimeterSpacing=8;targetPerimeterSpacing=8;" edge="1" parent="1" source="j4_hcc7tg6HEmNdBThnG-14" target="j4_hcc7tg6HEmNdBThnG-26">
          <mxGeometry relative="1" as="geometry" />
        </mxCell>
        <mxCell id="j4_hcc7tg6HEmNdBThnG-14" value="depodan araç çekilir." style="rounded=1;whiteSpace=wrap;html=1;fontFamily=Architects Daughter;fontSource=https%3A%2F%2Ffonts.googleapis.com%2Fcss%3Ffamily%3DArchitects%2BDaughter;" vertex="1" parent="1">
          <mxGeometry x="378" y="610" width="120" height="60" as="geometry" />
        </mxCell>
        <mxCell id="j4_hcc7tg6HEmNdBThnG-20" style="edgeStyle=none;curved=1;rounded=0;orthogonalLoop=1;jettySize=auto;html=1;exitX=0.5;exitY=1;exitDx=0;exitDy=0;fontFamily=Architects Daughter;fontSource=https%3A%2F%2Ffonts.googleapis.com%2Fcss%3Ffamily%3DArchitects%2BDaughter;fontSize=16;startSize=14;endArrow=open;endSize=14;sourcePerimeterSpacing=8;targetPerimeterSpacing=8;" edge="1" parent="1" source="j4_hcc7tg6HEmNdBThnG-18">
          <mxGeometry relative="1" as="geometry">
            <mxPoint x="276.5925925925926" y="495" as="targetPoint" />
          </mxGeometry>
        </mxCell>
        <mxCell id="j4_hcc7tg6HEmNdBThnG-22" style="edgeStyle=none;curved=1;rounded=0;orthogonalLoop=1;jettySize=auto;html=1;exitX=1;exitY=0.5;exitDx=0;exitDy=0;entryX=0;entryY=0.25;entryDx=0;entryDy=0;fontFamily=Architects Daughter;fontSource=https%3A%2F%2Ffonts.googleapis.com%2Fcss%3Ffamily%3DArchitects%2BDaughter;fontSize=16;startSize=14;endArrow=open;endSize=14;sourcePerimeterSpacing=8;targetPerimeterSpacing=8;" edge="1" parent="1" source="j4_hcc7tg6HEmNdBThnG-18" target="j4_hcc7tg6HEmNdBThnG-21">
          <mxGeometry relative="1" as="geometry" />
        </mxCell>
        <mxCell id="j4_hcc7tg6HEmNdBThnG-18" value="" style="rhombus;whiteSpace=wrap;html=1;shadow=0;fontFamily=Helvetica;fontSize=12;align=center;strokeWidth=1;spacing=6;spacingTop=-4;" vertex="1" parent="1">
          <mxGeometry x="225" y="372" width="100" height="80" as="geometry" />
        </mxCell>
        <mxCell id="j4_hcc7tg6HEmNdBThnG-28" style="edgeStyle=none;curved=1;rounded=0;orthogonalLoop=1;jettySize=auto;html=1;exitX=0.5;exitY=1;exitDx=0;exitDy=0;entryX=1;entryY=0.25;entryDx=0;entryDy=0;fontFamily=Architects Daughter;fontSource=https%3A%2F%2Ffonts.googleapis.com%2Fcss%3Ffamily%3DArchitects%2BDaughter;fontSize=16;startSize=14;endArrow=open;endSize=14;sourcePerimeterSpacing=8;targetPerimeterSpacing=8;" edge="1" parent="1" source="j4_hcc7tg6HEmNdBThnG-21" target="j4_hcc7tg6HEmNdBThnG-11">
          <mxGeometry relative="1" as="geometry" />
        </mxCell>
        <mxCell id="j4_hcc7tg6HEmNdBThnG-21" value="müşteri yeni bir fiyat teklifi talebi gönderir." style="rounded=1;whiteSpace=wrap;html=1;fontFamily=Architects Daughter;fontSource=https%3A%2F%2Ffonts.googleapis.com%2Fcss%3Ffamily%3DArchitects%2BDaughter;" vertex="1" parent="1">
          <mxGeometry x="402" y="395" width="120" height="60" as="geometry" />
        </mxCell>
        <mxCell id="j4_hcc7tg6HEmNdBThnG-25" style="edgeStyle=none;curved=1;rounded=0;orthogonalLoop=1;jettySize=auto;html=1;entryX=1;entryY=0.25;entryDx=0;entryDy=0;fontFamily=Architects Daughter;fontSource=https%3A%2F%2Ffonts.googleapis.com%2Fcss%3Ffamily%3DArchitects%2BDaughter;fontSize=16;startSize=14;endArrow=open;endSize=14;sourcePerimeterSpacing=8;targetPerimeterSpacing=8;" edge="1" parent="1" source="j4_hcc7tg6HEmNdBThnG-24" target="j4_hcc7tg6HEmNdBThnG-6">
          <mxGeometry relative="1" as="geometry" />
        </mxCell>
        <mxCell id="j4_hcc7tg6HEmNdBThnG-24" value="müşteri, istediği araçlar için fiyat teklifi talebi gönderir." style="rounded=1;whiteSpace=wrap;html=1;fontFamily=Architects Daughter;fontSource=https%3A%2F%2Ffonts.googleapis.com%2Fcss%3Ffamily%3DArchitects%2BDaughter;" vertex="1" parent="1">
          <mxGeometry x="428" y="219.99996032714844" width="120" height="60" as="geometry" />
        </mxCell>
        <mxCell id="j4_hcc7tg6HEmNdBThnG-35" style="edgeStyle=none;curved=1;rounded=0;orthogonalLoop=1;jettySize=auto;html=1;exitX=0.5;exitY=1;exitDx=0;exitDy=0;fontFamily=Architects Daughter;fontSource=https%3A%2F%2Ffonts.googleapis.com%2Fcss%3Ffamily%3DArchitects%2BDaughter;fontSize=16;startSize=14;endArrow=open;endSize=14;sourcePerimeterSpacing=8;targetPerimeterSpacing=8;" edge="1" parent="1" source="j4_hcc7tg6HEmNdBThnG-26">
          <mxGeometry relative="1" as="geometry">
            <mxPoint x="279" y="879" as="targetPoint" />
          </mxGeometry>
        </mxCell>
        <mxCell id="j4_hcc7tg6HEmNdBThnG-26" value="satış onaylanır." style="rounded=1;whiteSpace=wrap;html=1;fontFamily=Architects Daughter;fontSource=https%3A%2F%2Ffonts.googleapis.com%2Fcss%3Ffamily%3DArchitects%2BDaughter;" vertex="1" parent="1">
          <mxGeometry x="219" y="731" width="120" height="60" as="geometry" />
        </mxCell>
        <mxCell id="j4_hcc7tg6HEmNdBThnG-29" value="[teklif süresi 30 günü geçmemişse]" style="text;strokeColor=none;fillColor=none;html=1;align=center;verticalAlign=middle;whiteSpace=wrap;rounded=0;fontSize=20;fontFamily=Architects Daughter;fontSource=https%3A%2F%2Ffonts.googleapis.com%2Fcss%3Ffamily%3DArchitects%2BDaughter;" vertex="1" parent="1">
          <mxGeometry x="35" y="452" width="254" height="33" as="geometry" />
        </mxCell>
        <mxCell id="j4_hcc7tg6HEmNdBThnG-30" value="[else]" style="text;strokeColor=none;fillColor=none;html=1;align=center;verticalAlign=middle;whiteSpace=wrap;rounded=0;fontSize=20;fontFamily=Architects Daughter;fontSource=https%3A%2F%2Ffonts.googleapis.com%2Fcss%3Ffamily%3DArchitects%2BDaughter;" vertex="1" parent="1">
          <mxGeometry x="321" y="377" width="60" height="30" as="geometry" />
        </mxCell>
        <mxCell id="j4_hcc7tg6HEmNdBThnG-32" value="[stok varsa]" style="text;strokeColor=none;fillColor=none;html=1;align=center;verticalAlign=middle;whiteSpace=wrap;rounded=0;fontSize=20;fontFamily=Architects Daughter;fontSource=https%3A%2F%2Ffonts.googleapis.com%2Fcss%3Ffamily%3DArchitects%2BDaughter;" vertex="1" parent="1">
          <mxGeometry x="128" y="684" width="142" height="29" as="geometry" />
        </mxCell>
        <mxCell id="j4_hcc7tg6HEmNdBThnG-33" value="[else]" style="text;strokeColor=none;fillColor=none;html=1;align=center;verticalAlign=middle;whiteSpace=wrap;rounded=0;fontSize=20;fontFamily=Architects Daughter;fontSource=https%3A%2F%2Ffonts.googleapis.com%2Fcss%3Ffamily%3DArchitects%2BDaughter;" vertex="1" parent="1">
          <mxGeometry x="316" y="608" width="60" height="30" as="geometry" />
        </mxCell>
        <mxCell id="j4_hcc7tg6HEmNdBThnG-36" value="" style="ellipse;html=1;shape=startState;fillColor=#000000;strokeColor=#ff0000;fontFamily=Architects Daughter;fontSource=https%3A%2F%2Ffonts.googleapis.com%2Fcss%3Ffamily%3DArchitects%2BDaughter;" vertex="1" parent="1">
          <mxGeometry x="260" y="-102" width="30" height="30" as="geometry" />
        </mxCell>
        <mxCell id="j4_hcc7tg6HEmNdBThnG-37" value="" style="edgeStyle=orthogonalEdgeStyle;html=1;verticalAlign=bottom;endArrow=open;endSize=8;strokeColor=#ff0000;rounded=0;fontFamily=Architects Daughter;fontSource=https%3A%2F%2Ffonts.googleapis.com%2Fcss%3Ffamily%3DArchitects%2BDaughter;fontSize=16;sourcePerimeterSpacing=8;targetPerimeterSpacing=8;curved=1;" edge="1" source="j4_hcc7tg6HEmNdBThnG-36" parent="1">
          <mxGeometry relative="1" as="geometry">
            <mxPoint x="275" y="-12" as="targetPoint" />
          </mxGeometry>
        </mxCell>
        <mxCell id="j4_hcc7tg6HEmNdBThnG-38" value="" style="ellipse;html=1;shape=endState;fillColor=#000000;strokeColor=#ff0000;fontFamily=Architects Daughter;fontSource=https%3A%2F%2Ffonts.googleapis.com%2Fcss%3Ffamily%3DArchitects%2BDaughter;" vertex="1" parent="1">
          <mxGeometry x="264" y="878" width="30" height="30" as="geometry" />
        </mxCell>
      </root>
    </mxGraphModel>
  </diagram>
</mxfile>
